<?xml version="1.0" encoding="UTF-8"?>
<svg width="194px" height="32px" viewBox="0 0 194 32" version="1.1" xmlns="http://www.w3.org/2000/svg" xmlns:xlink="http://www.w3.org/1999/xlink">
    <!-- Generator: Sketch 44.1 (41455) - http://www.bohemiancoding.com/sketch -->
    <title>Logo/jobb-horizontal-vector</title>
    <desc>Created with Sketch.</desc>
    <defs></defs>
    <g id="04-Example-pages" stroke="none" stroke-width="1" fill="none" fill-rule="evenodd">
        <g id="02-LI-Desktop" transform="translate(-148.000000, -40.000000)" fill="#FFFFFF">
            <g id="Group-28">
                <g id="Group-27">
                    <g id="Group-10">
                        <g id="Logo/jobb-horizontal--white" transform="translate(148.000000, 40.000000)">
                            <g id="Page-1">
                                <path d="M136.232633,1.99726667 C136.232633,3.03426667 135.624633,3.64193333 134.587967,3.64193333 C133.550967,3.64193333 132.9433,3.03426667 132.9433,1.99726667 C132.9433,0.9606 133.550967,0.3526 134.587967,0.3526 C135.624633,0.3526 136.232633,0.9606 136.232633,1.99726667 Z M135.669967,5.7556 L135.669967,27.2722667 C135.669967,30.0602667 133.851633,31.7972667 131.265967,31.7972667 C129.892633,31.7972667 128.518967,31.3529333 127.387633,30.5449333 L128.3573,28.8479333 C129.205633,29.4139333 130.134967,29.7369333 131.023633,29.7369333 C132.5993,29.7369333 133.4883,28.6862667 133.4883,26.8682667 L133.4883,5.7556 L135.669967,5.7556 Z" id="Fill-1"></path>
                                <path d="M153.863767,16.2454 C153.863767,10.8317333 151.318433,7.7614 146.9551,7.7614 C142.632433,7.7614 140.0871,10.8317333 140.0871,16.2454 C140.0871,21.6187333 142.632433,24.6890667 146.9551,24.6890667 C151.318433,24.6890667 153.863767,21.6187333 153.863767,16.2454 M137.8651,16.2454 C137.8651,9.74106667 141.339433,5.78173333 146.9551,5.78173333 C152.611433,5.78173333 156.085767,9.74106667 156.085767,16.2454 C156.085767,22.7094 152.611433,26.6687333 146.9551,26.6687333 C141.339433,26.6687333 137.8651,22.7094 137.8651,16.2454" id="Fill-3"></path>
                                <path d="M172.572,16.2858333 C172.572,10.8721667 170.228667,7.6805 166.188667,7.6805 C164.168667,7.6805 162.027333,8.4885 160.330667,9.86216667 L160.330667,23.7598333 C161.421333,24.4065 163.118333,24.8105 164.976667,24.8105 C170.026667,24.8105 172.572,21.9418333 172.572,16.2858333 M174.794,16.2858333 C174.794,23.0328333 171.400333,26.6688333 165.057667,26.6688333 C162.512333,26.6688333 159.805333,26.1031667 158.149,25.2145 L158.149,0.3335 L160.330667,0.3335 L160.330667,7.92283333 C162.068,6.50883333 164.249333,5.7815 166.471667,5.7815 C171.643,5.7815 174.794,9.78116667 174.794,16.2858333" id="Fill-5"></path>
                                <path d="M191.268033,16.2858333 C191.268033,10.8721667 188.9247,7.6805 184.8847,7.6805 C182.8647,7.6805 180.723367,8.4885 179.0267,9.86216667 L179.0267,23.7598333 C180.117367,24.4065 181.814033,24.8105 183.6727,24.8105 C188.7227,24.8105 191.268033,21.9418333 191.268033,16.2858333 M193.490033,16.2858333 C193.490033,23.0328333 190.096367,26.6688333 183.753367,26.6688333 C181.208367,26.6688333 178.501367,26.1031667 176.845033,25.2145 L176.845033,0.3335 L179.0267,0.3335 L179.0267,7.92283333 C180.7637,6.50883333 182.945367,5.7815 185.167367,5.7815 C190.3387,5.7815 193.490033,9.78116667 193.490033,16.2858333" id="Fill-7"></path>
                                <path d="M11.0153,18.6272333 C10.3339667,19.3222333 9.27163333,19.5862333 8.20896667,19.5932333 C7.73063333,19.5902333 7.2543,19.5312333 6.81096667,19.4079 L6.81096667,12.2379 C7.2543,12.1149 7.73063333,12.0555667 8.20896667,12.0525667 C9.27163333,12.0595667 10.3339667,12.3239 11.0153,13.0185667 C11.7106333,13.6992333 11.9749667,14.7612333 11.9819667,15.8229 C11.9749667,16.8845667 11.7106333,17.9465667 11.0153,18.6272333 M16.7446333,8.21356667 C14.8956333,6.32823333 12.0126333,5.61156667 9.12963333,5.5919 C8.34996667,5.59723333 7.5703,5.65523333 6.81096667,5.7719 L6.81096667,0.333233333 L-3.33333337e-05,0.333233333 L-3.33333337e-05,26.0539 L9.12963333,26.0539 C12.0126333,26.0342333 14.8956333,25.3175667 16.7446333,23.4322333 C18.6309667,21.5849 19.3483,18.7039 19.3676333,15.8229 C19.3483,12.9419 18.6309667,10.0609 16.7446333,8.21356667" id="Fill-15"></path>
                                <polygon id="Fill-12" points="21.0636667 26.054 27.8746667 26.054 27.8746667 0.333333333 21.0636667 0.333333333"></polygon>
                                <path d="M41.9992,19.025 C41.4678667,19.7203333 40.6388667,19.9846667 39.8102,19.9916667 C38.9815333,19.9846667 38.1528667,19.7203333 37.6215333,19.025 C37.0792,18.3436667 36.8728667,17.2813333 36.8672,16.2186667 C36.8728667,15.1563333 37.0788667,14.0936667 37.6215333,13.4123333 C38.1528667,12.717 38.9815333,12.453 39.8102,12.4456667 C40.6388667,12.453 41.4678667,12.717 41.9992,13.4123333 C42.5415333,14.0936667 42.7475333,15.1563333 42.7532,16.2186667 C42.7475333,17.281 42.5415333,18.3436667 41.9992,19.025 M47.4248667,8.604 C45.5762,6.71733333 42.6932,6.00033333 39.8102,5.98066667 C36.9272,6.00033333 34.0442,6.71733333 32.1955333,8.604 C30.3088667,10.453 29.5918667,13.3356667 29.5722,16.2186667 C29.5918667,19.1016667 30.3092,21.9846667 32.1955333,23.8333333 C34.0442,25.72 36.9272,26.437 39.8102,26.4566667 C42.6932,26.437 45.5762,25.72 47.4248667,23.8333333 C49.3115333,21.9846667 50.0285333,19.1016667 50.0482,16.2186667 C50.0285333,13.3356667 49.3115333,10.4526667 47.4248667,8.604" id="Fill-14"></path>
                                <path d="M63.2321667,19.9917333 C61.9948333,19.9844 60.7571667,19.7204 59.9638333,19.0250667 C59.1541667,18.3437333 58.8461667,17.2810667 58.8378333,16.2187333 C58.8461667,15.1560667 59.1538333,14.0937333 59.9638333,13.4124 C60.7571667,12.7170667 61.9948333,12.4527333 63.2321667,12.4457333 C64.2968333,12.4517333 65.3595,12.6504 66.1411667,13.1477333 L66.1411667,6.6414 C64.7908333,6.19073333 63.2981667,5.99073333 61.8038333,5.98073333 C58.9208333,6.0004 56.0378333,6.7174 54.1891667,8.60373333 C52.3025,10.4527333 51.5851667,13.3357333 51.5658333,16.2187333 C51.5855,19.1017333 52.3025,21.9847333 54.1891667,23.8334 C56.0375,25.7200667 58.9208333,26.4370667 61.8038333,26.4567333 C63.2981667,26.4464 64.7908333,26.2467333 66.1411667,25.7960667 L66.1411667,19.2897333 C65.3595,19.7870667 64.2968333,19.9854 63.2321667,19.9917333" id="Fill-16"></path>
                                <path d="M88.2310667,6.481 L79.5614,6.47166667 L74.6717333,13.3856667 L74.6717333,0.333333333 L67.8677333,0.333333333 L67.8677333,26.054 L74.6717333,26.054 L74.6717333,17.171 C74.7414,17.2993333 78.8937333,23.9773333 80.2214,26.054 L89.0917333,26.054 L81.0460667,14.9793333 L88.2310667,6.481 Z" id="Fill-10"></path>
                                <path d="M94.2413333,13.8273 C94.2906667,13.0896333 94.4696667,12.3863 94.8493333,11.9093 C95.289,11.3343 95.9746667,11.1153 96.6603333,11.1096333 C97.346,11.1153 98.0316667,11.3343 98.4713333,11.9093 C98.851,12.3863 99.03,13.0896333 99.0793333,13.8273 L94.2413333,13.8273 Z M105.718333,15.6053 C105.718333,12.5633 104.976667,10.1986333 103.494333,8.51163333 C102.011667,6.82463333 99.8003333,5.98096667 96.861,5.98096667 C93.8696667,5.98096667 91.221,6.8613 89.3933333,8.75263333 C87.5656667,10.6443 86.8913333,13.2023 86.8913333,16.2956333 C86.8913333,19.3886333 87.769,22.1559667 89.699,23.9963 C91.629,25.8369667 94.343,26.4566333 97.666,26.4566333 C100.452333,26.4566333 103.238667,25.8063 105.718333,24.5023 L105.718333,19.3906333 C103.75,20.6946333 101.72,21.0119667 99.368,21.0119667 C97.8343333,21.0119667 96.6203333,20.7176333 95.7256667,20.1299667 C94.8306667,19.5419667 94.3323333,18.6983 94.23,17.5993 L105.718333,17.5993 L105.718333,15.6053 Z" id="Fill-18"></path>
                                <path d="M119.234967,13.1882 L119.234967,6.81286667 L114.271633,6.81286667 L114.271633,1.8492 L107.460633,1.8492 L107.460633,16.3452 L107.4633,16.3452 C107.502967,19.1858667 108.224967,22.0118667 110.083967,23.8332 C111.9323,25.7198667 114.8153,26.4372 117.6983,26.4568667 C118.212633,26.4532 118.726633,26.4262 119.234967,26.3758667 L119.234967,19.9872 C119.183633,19.9882 119.1323,19.9915333 119.080967,19.9918667 C117.729967,19.9845333 116.378633,19.7202 115.5123,19.0248667 C114.6283,18.3435333 114.2923,17.2812 114.282967,16.2188667 L114.271633,16.2188667 L114.271633,13.1882 L119.234967,13.1882 Z" id="Fill-17"></path>
                            </g>
                        </g>
                    </g>
                </g>
            </g>
        </g>
    </g>
</svg>